{"glyphs":{":":{"x_min":0,"x_max":205,"ha":205,"o":"m 166 37 q 166 -18 112 -18 q 97 -18 83 -8 q 69 1 69 23 q 69 45 89 58 q 109 70 126 70 q 143 70 154 60 q 166 51 166 37 z m 166 322 q 166 267 112 267 q 97 267 83 276 q 69 286 69 308 q 69 330 89 342 q 109 355 126 355 q 143 355 154 346 q 166 336 166 322 z"},"$":{"x_min":0,"x_max":481,"ha":481,"o":"m 337 459 l 342 485 q 340 537 274 539 q 272 480 266 340 q 386 276 409 231 q 421 208 421 181 q 421 108 371 62 q 321 16 247 2 q 240 -67 219 -67 q 198 -67 197 -4 q 117 -4 66 24 q 14 52 14 115 q 14 147 34 173 q 55 199 96 199 q 112 199 125 190 q 138 180 140 166 q 140 151 122 151 q 88 151 88 122 q 88 90 116 63 q 145 36 197 35 q 197 44 216 296 q 114 350 94 390 q 84 410 84 434 q 84 488 128 527 q 173 566 234 577 q 234 633 260 633 q 275 633 275 581 q 323 581 361 561 q 399 541 399 500 q 399 444 357 444 q 337 444 337 459 z m 348 159 q 348 218 263 270 q 250 71 250 42 q 292 54 320 86 q 348 118 348 159 z m 155 446 q 155 406 221 366 l 232 532 q 200 520 178 496 q 155 472 155 446 z"},"?":{"x_min":0,"x_max":386,"ha":386,"o":"m 160 133 q 136 133 121 152 q 106 171 106 198 q 106 224 122 244 q 137 265 159 279 q 181 293 204 309 q 226 325 242 354 q 257 383 257 426 q 257 468 234 496 q 210 524 168 524 q 150 524 134 508 q 114 487 102 454 q 90 428 69 428 q 57 428 50 437 q 44 446 44 456 q 45 499 96 530 q 148 560 200 560 q 252 560 294 530 q 337 499 337 448 q 337 398 319 362 q 301 327 275 308 q 249 288 222 273 q 196 258 178 244 q 160 229 160 216 q 160 202 175 189 q 190 176 190 170 q 190 163 179 148 q 168 133 160 133 z m 187 37 q 187 -18 133 -18 q 118 -18 104 -8 q 90 1 90 23 q 91 45 110 58 q 130 70 147 70 q 164 70 176 60 q 187 51 187 37 z"},"<":{"x_min":0,"x_max":443,"ha":443,"o":"m 388 409 q 409 409 409 392 q 409 367 360 341 q 339 329 262 300 q 185 272 133 248 q 218 224 304 184 q 389 143 389 125 q 389 92 370 92 q 355 92 244 142 q 133 192 85 206 q 37 219 37 238 q 37 248 46 255 q 55 262 75 262 q 95 262 312 367 q 335 378 360 394 q 386 409 388 409 z"},"'":{"x_min":0,"x_max":130,"ha":130,"o":"m 41 580 q 62 580 71 574 q 80 567 80 546 q 80 525 70 473 q 59 421 50 400 q 46 391 32 391 q 18 391 16 402 q 8 437 8 547 q 8 580 41 580 z"},"=":{"x_min":0,"x_max":511,"ha":511,"o":"m 365 138 q 328 138 274 147 q 219 156 196 156 q 174 156 158 152 q 143 149 122 149 q 84 149 84 176 q 84 205 155 205 q 189 205 221 200 q 270 191 306 191 q 351 191 395 218 q 399 221 404 221 q 408 221 408 205 q 408 189 396 164 q 384 138 365 138 z m 183 287 l 110 283 q 89 284 90 304 q 90 325 110 333 q 124 340 244 340 q 365 340 388 349 q 410 358 420 358 q 430 358 430 347 q 427 278 345 278 z"},"a":{"x_min":0,"x_max":383,"ha":383,"o":"m 281 -5 q 242 -5 222 11 q 215 18 215 46 q 215 75 217 123 q 191 58 166 26 q 140 -5 100 -5 q 60 -5 30 32 q 0 70 0 150 q 0 231 46 293 q 91 355 165 355 q 197 355 237 313 q 245 324 266 340 q 286 355 300 355 q 315 355 315 317 q 315 307 310 278 q 304 249 297 236 q 288 213 288 73 q 288 46 294 46 q 311 47 341 88 q 371 130 400 195 q 430 260 436 260 q 443 260 443 252 q 443 224 414 163 q 335 -5 281 -5 z m 159 315 q 131 315 100 274 q 68 232 68 176 q 68 120 84 84 q 101 48 128 48 q 161 48 225 213 q 226 221 228 240 q 229 260 230 270 q 221 286 198 300 q 176 315 159 315 z"},"L":{"x_min":0,"x_max":482,"ha":482,"o":"m 486 522 q 486 483 468 450 q 449 418 418 396 q 357 355 275 337 q 255 165 216 91 q 308 60 340 52 q 372 43 408 43 q 443 43 456 72 q 469 101 475 101 q 487 101 487 86 q 487 39 452 6 q 417 -27 376 -27 q 334 -27 300 -13 q 266 1 257 5 q 248 9 220 22 q 193 35 182 40 q 144 0 80 0 q 54 0 34 19 q 14 38 14 64 q 14 121 79 121 q 107 121 157 108 q 176 168 197 326 q 186 325 168 325 q 149 325 149 331 q 149 350 201 355 q 215 463 266 522 q 318 580 402 580 q 486 580 486 522 z m 388 555 q 307 555 278 366 q 342 380 384 414 q 425 447 425 501 q 425 555 388 555 z m 134 61 q 76 86 62 86 q 49 86 49 72 q 49 58 62 48 q 74 38 94 38 q 114 38 134 61 z"},"3":{"x_min":0,"x_max":404,"ha":404,"o":"m 94 492 l 99 467 q 99 459 86 459 q 74 459 66 478 q 57 496 57 518 q 57 540 72 558 q 87 576 109 576 q 131 576 190 556 q 249 536 293 535 q 314 560 335 560 q 376 560 376 500 q 376 481 351 469 q 326 457 302 457 q 287 439 258 406 q 228 374 204 345 q 228 349 252 349 q 309 349 342 302 q 375 254 375 201 q 375 101 302 46 q 229 -10 130 -10 q 89 -10 50 18 q 12 46 12 74 q 12 87 18 96 q 25 104 40 104 q 54 104 69 92 q 84 80 92 66 q 100 51 116 39 q 131 27 151 27 q 219 27 258 76 q 298 126 298 192 q 298 230 272 269 q 246 308 206 308 q 190 308 170 304 q 150 300 138 300 q 127 300 127 309 q 127 318 135 326 q 209 396 255 462 q 219 470 172 492 q 125 514 117 514 q 94 514 94 492 z"},";":{"x_min":0,"x_max":203,"ha":203,"o":"m 62 -114 q 54 -114 54 -103 q 54 -92 74 -66 q 94 -40 94 -26 q 94 -11 81 4 q 68 19 68 30 q 68 41 87 58 q 106 76 121 76 q 136 76 148 58 q 160 39 160 14 q 160 -11 124 -62 q 87 -114 62 -114 z m 166 322 q 166 267 112 267 q 97 267 83 276 q 69 286 69 308 q 69 330 89 342 q 109 355 126 355 q 143 355 154 346 q 166 336 166 322 z"},"J":{"x_min":0,"x_max":415,"ha":415,"o":"m 78 361 q 78 422 131 463 q 184 504 275 524 q 281 566 309 591 q 337 616 360 616 q 382 616 396 604 q 409 591 409 570 q 409 521 340 502 q 325 222 325 215 q 355 232 396 248 q 436 263 453 263 q 470 263 470 256 q 470 243 458 239 q 393 218 324 176 q 316 -36 314 -78 q 307 -196 262 -258 q 217 -320 137 -320 q 74 -320 37 -268 q 0 -217 0 -155 q 0 -67 62 12 q 124 90 251 173 l 272 489 q 145 467 145 380 q 145 355 134 341 q 124 327 108 327 q 78 327 78 361 z m 151 -284 q 219 -284 231 -133 q 237 -57 242 18 q 246 93 248 125 q 207 96 182 76 q 157 55 128 24 q 73 -38 73 -126 q 73 -211 102 -256 q 121 -284 151 -284 z m 368 582 q 346 582 342 537 q 378 548 378 566 q 378 582 368 582 z"},"V":{"x_min":0,"x_max":507,"ha":507,"o":"m 234 -20 q 151 -20 121 52 q 100 101 88 176 q 58 142 48 130 q 38 117 30 117 q 18 117 18 127 q 18 133 24 139 q 59 174 84 203 q 76 260 76 324 q 76 389 88 446 q 100 503 128 542 q 157 580 199 580 q 250 580 250 493 q 250 381 160 262 q 167 172 195 93 q 206 61 220 46 q 233 30 258 30 q 282 30 312 64 q 343 97 369 150 q 395 204 413 280 q 431 355 431 437 q 431 519 419 552 q 407 586 378 613 q 340 645 340 676 q 340 691 352 702 q 365 714 378 714 q 411 714 434 693 q 456 672 466 636 q 484 573 484 498 q 484 357 446 235 q 407 113 350 46 q 292 -20 234 -20 z m 212 480 q 212 533 200 533 q 192 533 182 509 q 172 485 164 442 q 156 399 156 358 q 156 317 157 300 q 212 392 212 480 z"},"\"":{"x_min":0,"x_max":248,"ha":248,"o":"m 48 580 q 69 580 78 574 q 87 567 87 546 q 87 525 76 473 q 66 421 57 400 q 52 391 38 391 q 25 391 23 402 q 15 437 15 547 q 15 580 48 580 z m 160 580 q 181 580 190 574 q 199 567 199 546 q 199 525 188 473 q 178 421 169 400 q 164 391 150 391 q 137 391 135 402 q 127 437 127 547 q 127 580 160 580 z"},"7":{"x_min":0,"x_max":354,"ha":354,"o":"m 167 225 q 154 225 137 220 q 120 214 110 214 q 90 214 90 230 q 90 269 187 269 q 234 373 259 441 q 213 451 141 477 q 69 503 61 503 q 40 503 40 481 q 40 473 44 462 q 49 450 49 446 q 49 438 42 438 q 26 438 14 462 q 1 485 1 507 q 1 529 15 547 q 29 565 51 565 q 73 565 154 540 q 236 516 280 515 q 286 524 302 536 q 318 547 330 547 q 343 547 354 528 q 365 510 365 480 q 365 462 344 451 q 324 440 299 437 q 276 368 237 264 q 268 261 304 261 q 339 261 339 245 q 339 232 312 230 q 303 229 223 227 q 180 112 175 95 q 170 78 166 58 q 162 38 158 26 q 153 14 139 2 q 125 -10 108 -10 q 90 -10 82 3 q 75 16 75 31 q 75 67 111 116 q 127 139 167 225 z"},"S":{"x_min":0,"x_max":479,"ha":479,"o":"m 333 459 l 338 485 q 334 539 265 539 q 225 539 196 510 q 166 482 166 450 q 166 419 192 396 q 219 372 256 354 q 294 335 332 314 q 369 292 396 258 q 422 224 422 181 q 422 92 352 41 q 282 -10 201 -10 q 120 -10 66 20 q 12 49 12 109 q 12 141 34 167 q 56 193 97 193 q 113 193 126 184 q 139 175 142 160 q 142 145 124 145 q 90 145 90 116 q 91 83 122 56 q 152 29 208 29 q 263 29 302 67 q 342 105 342 159 q 342 195 315 224 q 288 253 250 274 q 212 294 174 315 q 135 336 108 366 q 81 396 81 434 q 81 501 138 541 q 196 581 269 581 q 318 581 358 561 q 398 541 399 500 q 399 476 387 460 q 375 444 354 444 q 334 444 333 459 z"},"}":{"x_min":0,"x_max":274,"ha":274,"o":"m 86 43 l 80 153 q 80 226 133 261 q 90 286 90 345 q 90 368 100 416 q 111 463 111 489 q 111 557 74 587 l 63 593 q 45 603 45 610 q 45 618 73 618 q 116 618 148 576 q 181 533 181 464 q 181 444 170 404 q 159 364 159 334 q 159 304 177 284 q 194 287 208 287 q 225 287 225 269 q 225 260 218 250 q 211 240 203 240 q 203 240 187 242 q 172 242 166 233 q 146 206 146 157 l 157 61 q 157 -2 124 -52 q 91 -102 38 -102 q 10 -102 10 -92 q 10 -86 24 -80 q 38 -73 41 -71 q 86 -41 86 43 z"},"Z":{"x_min":0,"x_max":501,"ha":501,"o":"m 363 454 q 255 324 155 125 q 203 118 294 89 q 384 60 395 60 q 452 60 518 203 q 544 260 556 260 q 562 260 562 248 q 562 235 528 158 q 494 82 472 45 q 449 8 424 -8 q 399 -25 350 -25 q 326 -25 248 18 q 170 61 130 61 q 99 0 72 0 q 29 0 29 38 q 29 55 50 82 q 70 110 97 122 q 221 334 338 467 q 210 540 143 540 q 118 540 118 497 q 118 485 124 462 q 130 440 130 436 q 130 424 118 424 q 107 424 94 458 q 82 493 82 530 q 82 567 97 594 q 112 620 136 620 q 161 620 187 614 q 213 608 232 601 q 251 594 276 580 q 302 565 314 558 q 358 528 380 512 q 432 562 462 562 q 482 562 498 549 q 513 536 513 506 q 513 477 490 456 q 467 435 436 435 q 404 435 363 454 z m 460 507 q 460 521 444 521 q 428 521 403 498 q 420 489 430 489 q 460 489 460 507 z"},"x":{"x_min":0,"x_max":316,"ha":316,"o":"m 240 51 q 270 51 336 197 q 344 214 349 226 q 354 239 358 246 q 364 260 370 260 q 375 260 375 252 q 375 223 345 160 q 268 -5 220 -5 q 184 -5 173 12 q 162 30 128 104 q 98 51 76 23 q 55 -5 37 -5 q 19 -5 9 -1 q -1 3 -4 8 q -6 12 -6 19 q -6 26 7 38 q 63 89 107 148 q 93 175 70 208 q 47 240 32 261 q 18 282 18 300 q 18 317 32 344 q 45 370 64 370 q 82 370 90 352 q 99 334 99 315 q 108 300 151 211 q 166 235 188 276 q 210 318 222 336 q 234 355 242 355 q 260 355 266 349 q 271 343 271 331 q 271 319 262 308 q 252 297 240 288 q 228 278 216 262 q 205 246 168 177 q 229 51 240 51 z"},")":{"x_min":0,"x_max":258,"ha":258,"o":"m 67 618 q 101 618 118 600 q 167 551 190 472 q 214 393 214 306 q 214 125 76 -54 q 39 -102 15 -102 q 6 -102 6 -89 q 6 -76 34 -45 q 143 85 143 262 q 143 438 79 537 q 73 546 60 562 q 48 578 40 590 q 33 601 33 606 q 33 612 45 615 q 57 618 67 618 z"},"&":{"x_min":0,"x_max":532,"ha":532,"o":"m 140 312 q 89 406 89 464 q 89 522 132 567 q 175 612 242 612 q 310 612 348 582 q 386 553 386 501 q 386 449 341 406 q 294 363 258 340 q 221 317 217 314 q 285 216 385 129 q 402 165 402 196 q 402 226 390 244 q 378 261 362 263 q 347 265 347 276 q 347 290 361 298 q 375 306 402 306 q 430 306 448 284 q 467 262 467 230 q 467 160 422 98 q 492 43 554 20 q 566 16 573 14 q 580 11 586 8 q 598 3 598 -6 q 598 -16 576 -28 q 555 -41 538 -41 q 460 -41 360 39 q 285 -13 188 -13 q 90 -13 45 28 q 0 70 0 128 q 0 185 36 226 q 73 268 140 312 z m 85 155 q 85 102 124 65 q 163 28 222 28 q 281 28 331 65 q 233 154 159 276 q 85 221 85 155 z m 196 348 q 253 385 282 416 q 312 448 312 486 q 312 525 290 549 q 268 573 228 573 q 189 573 170 544 q 152 516 152 470 q 152 423 196 348 z"},"_":{"x_min":0,"x_max":460,"ha":460,"o":"m 140 -96 l 20 -101 q -1 -101 -1 -81 q -1 -68 9 -54 q 19 -39 29 -39 q 30 -39 58 -42 q 140 -51 256 -51 q 372 -51 398 -40 q 424 -29 433 -29 q 442 -29 442 -44 q 442 -58 428 -81 q 414 -104 400 -104 q 340 -104 260 -100 q 180 -96 140 -96 z"},"v":{"x_min":0,"x_max":350,"ha":350,"o":"m 125 44 q 161 44 188 82 q 215 119 228 173 q 192 184 173 212 q 154 239 154 275 q 154 311 172 338 q 191 365 226 365 q 247 365 258 338 q 269 312 269 279 q 269 246 264 213 q 279 207 296 207 q 335 207 371 243 q 389 261 396 261 q 402 261 402 251 q 402 241 389 227 q 336 168 255 168 q 236 95 196 45 q 156 -5 98 -5 q 64 -5 42 24 q 5 71 5 162 q 5 193 10 242 q 15 291 22 302 q 28 313 54 329 q 79 345 89 345 q 104 345 104 327 q 104 276 78 216 q 78 145 90 94 q 101 44 125 44 z m 216 327 q 208 327 208 294 q 208 261 238 231 q 240 243 240 255 q 240 327 216 327 z"},"O":{"x_min":0,"x_max":586,"ha":586,"o":"m 21 223 q 21 290 46 356 q 72 421 120 464 q 132 529 182 570 q 233 610 327 610 q 421 610 478 536 q 534 463 534 345 q 534 268 511 199 q 557 215 594 240 q 632 264 633 264 q 644 264 644 251 q 644 240 596 208 q 548 177 497 164 q 460 83 392 36 q 324 -10 228 -10 q 131 -10 76 54 q 21 119 21 223 z m 443 187 q 456 232 456 287 q 456 405 412 487 q 367 569 285 569 q 250 569 216 550 q 181 530 166 497 q 218 526 272 526 q 325 526 325 511 q 325 502 318 497 q 311 492 304 492 q 218 492 158 434 q 166 332 248 260 q 329 187 443 187 z m 265 41 q 385 41 432 154 q 312 154 224 217 q 135 280 119 382 q 91 329 91 263 q 91 172 142 106 q 192 41 265 41 z"},"(":{"x_min":0,"x_max":274,"ha":274,"o":"m 212 -102 q 178 -102 161 -84 q 112 -35 88 44 q 65 123 65 210 q 65 391 203 570 q 240 618 264 618 q 273 618 273 605 q 273 592 245 561 q 136 431 136 254 q 136 78 200 -21 q 206 -30 218 -46 q 231 -62 238 -74 q 246 -85 246 -90 q 246 -96 234 -99 q 222 -102 212 -102 z"},"C":{"x_min":0,"x_max":412,"ha":412,"o":"m 410 165 q 417 175 430 200 q 462 257 468 257 q 475 257 475 249 q 475 200 424 125 q 332 -10 179 -10 q 136 -10 100 10 q 64 30 43 61 q 0 124 0 193 q 0 367 90 474 q 181 580 305 580 q 352 580 382 552 q 412 525 412 483 q 412 441 391 405 q 370 369 340 369 q 311 369 311 385 q 311 403 330 426 q 350 449 350 472 q 350 543 274 543 q 199 543 138 442 q 77 341 77 234 q 77 160 119 102 q 161 45 237 45 q 327 45 410 165 z"},"W":{"x_min":0,"x_max":689,"ha":689,"o":"m 452 480 l 446 406 q 446 266 464 160 q 482 53 507 53 q 541 53 582 148 q 623 243 623 338 q 623 447 600 486 q 591 500 572 519 q 537 554 537 586 q 537 601 546 610 q 554 620 566 620 q 597 620 618 596 q 639 571 648 532 q 665 463 665 386 q 665 207 598 96 q 532 -15 468 -15 q 422 -15 400 83 q 377 181 377 332 q 317 82 250 16 q 217 -15 179 -15 q 159 -15 140 2 q 120 20 111 49 q 91 108 91 274 q 49 280 16 296 q 0 304 0 314 q 0 324 20 324 l 92 309 q 101 482 157 576 q 187 627 224 627 q 291 627 291 527 q 291 446 260 372 q 229 298 167 278 q 167 211 175 158 q 191 53 214 53 q 233 53 264 110 q 295 168 324 266 q 354 364 363 459 q 364 473 390 491 q 416 509 426 509 q 452 509 452 480 z m 254 548 q 247 579 235 579 q 213 579 192 488 q 170 396 167 309 q 210 326 234 390 q 257 455 257 492 q 257 530 254 548 z"},"A":{"x_min":0,"x_max":501,"ha":501,"o":"m 396 46 q 414 46 444 88 q 474 129 504 194 q 533 260 540 260 q 546 260 546 252 q 546 224 517 163 q 438 -5 383 -5 q 337 -5 317 11 q 308 20 308 201 l 144 189 q 125 137 110 85 q 95 33 90 21 q 79 -5 37 -5 q 9 -5 9 19 q 9 43 47 89 q 54 98 93 186 q 79 185 66 185 q 31 185 31 215 q 31 242 59 242 q 61 242 116 237 q 131 272 148 306 q 279 580 328 580 q 365 580 379 237 l 388 237 q 395 237 395 227 q 395 217 380 210 q 386 46 396 46 z m 159 232 q 276 232 308 233 q 307 249 306 289 q 305 329 304 358 q 303 388 302 420 q 298 489 290 489 q 279 489 245 424 q 211 359 192 314 q 166 249 159 232 z"},"f":{"x_min":0,"x_max":227,"ha":227,"o":"m 149 211 q 203 224 240 244 q 276 264 278 264 q 284 264 284 254 q 284 244 264 229 q 222 198 159 176 q 185 77 185 -34 q 185 -127 164 -212 q 152 -260 126 -290 q 101 -320 64 -320 q 32 -320 20 -292 q 5 -259 3 -229 q 0 -182 0 -76 q 0 30 16 180 q -20 206 -20 244 q -20 281 -4 302 q 12 322 36 328 q 50 415 64 478 q 77 541 105 580 q 133 620 161 620 q 193 620 193 549 q 193 437 110 297 q 131 267 149 211 z m 79 161 q 70 38 70 -122 q 70 -281 87 -281 q 117 -281 137 -202 q 157 -124 157 -26 q 157 71 135 169 q 105 161 79 161 z m 94 311 q 123 359 147 424 q 171 490 171 534 q 171 578 162 578 q 146 578 128 505 q 109 432 94 311 z m 94 271 l 88 261 l 83 210 q 96 206 106 206 q 117 206 124 207 q 111 246 94 271 z m 32 303 q 17 298 17 280 q 17 262 25 249 q 29 285 32 303 z"},"Q":{"x_min":0,"x_max":599,"ha":599,"o":"m 342 592 q 439 592 495 529 q 551 466 551 355 q 551 244 504 153 q 456 62 371 19 q 414 -19 432 -19 q 485 -19 518 30 q 535 55 545 55 q 555 55 555 45 q 555 21 538 -5 q 488 -83 399 -83 q 360 -83 293 -5 q 265 -10 242 -10 q 151 -10 94 56 q 36 122 36 217 q 36 363 108 472 q 143 527 204 560 q 264 592 342 592 z m 315 546 q 208 546 158 467 q 107 388 107 258 q 107 204 129 157 q 151 110 186 79 q 215 108 246 108 q 277 108 339 50 q 404 71 438 136 q 472 202 472 303 q 472 404 428 475 q 384 546 315 546 z"},"w":{"x_min":0,"x_max":465,"ha":465,"o":"m 416 207 q 458 207 494 243 q 512 261 518 261 q 525 261 525 251 q 525 241 512 227 q 459 168 379 168 q 363 94 329 44 q 295 -5 243 -5 q 191 -5 168 56 q 127 -5 83 -5 q 0 -5 0 155 q 0 266 22 306 q 26 313 52 329 q 78 345 88 345 q 103 345 103 327 q 101 280 75 216 q 69 204 69 158 q 69 113 80 78 q 90 44 110 44 q 130 44 159 92 q 154 117 154 146 q 154 174 160 206 q 166 239 184 272 q 202 305 227 305 q 235 305 238 300 q 242 295 242 276 q 242 225 215 149 q 219 105 236 74 q 252 44 272 44 q 301 44 321 82 q 341 119 352 173 q 315 183 295 211 q 275 239 275 276 q 275 312 292 338 q 310 365 344 365 q 390 365 390 266 q 390 240 387 212 q 402 207 416 207 z m 337 327 q 328 327 328 293 q 328 259 359 230 q 360 235 360 245 q 360 327 337 327 z"},"-":{"x_min":0,"x_max":287,"ha":287,"o":"m 245 267 q 242 198 160 198 q 147 198 120 202 q 93 207 66 207 q 40 207 24 205 q 9 203 7 203 q -14 204 -14 224 q -13 245 7 253 q 21 260 100 260 q 180 260 202 269 q 225 278 235 278 q 245 278 245 267 z"},"E":{"x_min":0,"x_max":436,"ha":436,"o":"m 193 334 q 227 303 268 303 q 277 303 282 308 q 287 312 287 315 q 287 327 271 336 q 255 344 234 344 q 213 344 193 334 z m 334 482 l 336 509 q 336 531 320 550 q 303 570 275 570 q 227 570 188 527 q 149 484 149 436 q 149 387 174 354 q 217 373 254 373 q 291 373 314 360 q 336 348 336 323 q 336 298 312 286 q 287 274 257 274 q 201 274 155 305 q 131 280 116 246 q 102 212 102 183 q 102 124 140 75 q 178 26 241 26 q 373 26 456 200 q 484 257 492 257 q 499 257 499 249 q 499 209 450 128 q 400 48 342 16 q 285 -15 202 -15 q 118 -15 70 34 q 22 83 22 156 q 22 204 50 248 q 79 293 124 325 q 77 364 77 419 q 77 495 136 548 q 195 600 279 600 q 334 600 372 572 q 409 543 409 504 q 409 482 396 468 q 383 454 363 454 q 334 454 334 482 z"},"s":{"x_min":0,"x_max":208,"ha":208,"o":"m 148 306 l 150 321 q 150 339 130 339 q 109 339 90 312 q 71 286 71 269 q 71 252 73 242 q 75 232 78 226 q 80 219 86 210 q 92 201 95 197 l 106 183 q 113 173 116 170 q 168 213 240 266 q 244 269 249 269 q 259 269 259 258 q 259 247 250 241 q 186 200 129 152 q 151 120 151 82 q 151 44 122 17 q 93 -10 48 -10 q 3 -10 3 33 q 3 64 69 128 q 64 134 51 148 q 38 161 32 169 q 25 177 16 190 q 0 215 0 244 q 0 303 38 340 q 76 376 119 376 q 146 376 161 362 q 176 347 176 332 q 176 298 160 298 q 148 298 148 306 z m 84 109 q 44 69 44 44 q 44 20 69 20 q 84 20 94 32 q 116 62 84 109 z"},">":{"x_min":0,"x_max":453,"ha":453,"o":"m 56 88 q 35 88 35 105 q 35 130 84 156 q 105 168 182 196 q 259 225 311 249 q 228 267 142 310 q 55 353 55 372 q 55 409 76 409 q 89 409 196 354 q 304 299 344 290 q 383 281 396 276 q 409 271 409 262 q 409 253 398 244 q 388 235 367 234 q 346 233 132 130 q 109 119 84 104 q 58 88 56 88 z"},"l":{"x_min":0,"x_max":175,"ha":175,"o":"m 73 -5 q 51 -5 32 0 q 14 6 10 11 q 0 23 0 136 q 0 248 25 441 q 46 600 123 600 q 141 600 149 580 q 157 561 157 543 q 157 413 78 252 q 75 169 75 108 q 75 46 86 46 q 103 47 133 88 q 163 130 192 195 q 222 260 228 260 q 235 260 235 252 q 235 224 206 163 q 127 -5 73 -5 z m 132 534 q 132 566 124 566 q 94 566 80 317 q 132 454 132 534 z"},"8":{"x_min":0,"x_max":405,"ha":405,"o":"m 135 542 q 160 560 168 560 q 177 560 177 552 q 177 543 158 520 q 127 483 127 443 q 127 381 212 331 q 313 395 313 451 q 313 484 296 502 q 278 521 259 521 q 240 521 224 515 q 208 509 203 509 q 194 509 194 523 q 194 537 217 548 q 240 560 274 560 q 309 560 341 538 q 373 516 373 480 q 373 443 361 425 l 343 398 q 331 380 288 350 q 246 320 240 315 q 374 237 374 143 q 374 66 317 28 q 260 -10 163 -10 q 104 -10 58 18 q 13 46 13 104 q 13 211 169 304 q 137 325 119 338 q 101 352 84 378 q 67 403 67 431 q 67 494 135 542 z m 295 134 q 295 214 200 284 q 85 187 85 107 q 85 70 113 44 q 141 18 188 18 q 236 18 266 52 q 295 86 295 134 z"},"\\":{"x_min":0,"x_max":274,"ha":274,"o":"m 172 -52 q 97 138 6 529 q 0 553 0 565 q 0 577 7 577 q 27 577 42 544 q 57 512 99 353 q 141 194 182 113 q 252 -13 268 -53 q 283 -93 283 -108 q 283 -124 274 -138 q 265 -151 250 -151 q 236 -151 212 -122 q 188 -92 172 -52 z"},"e":{"x_min":0,"x_max":293,"ha":293,"o":"m 122 -5 q 66 -5 33 38 q 0 80 0 134 q 0 243 46 299 q 92 355 165 355 q 199 355 221 336 q 243 318 243 286 q 243 226 192 186 q 142 145 69 143 q 73 104 96 76 q 118 47 148 47 q 178 47 202 61 q 226 75 246 101 q 288 156 318 226 q 326 244 330 252 q 335 260 340 260 q 346 260 346 252 q 346 202 285 102 q 219 -5 122 -5 z m 69 167 q 128 177 156 205 q 183 233 183 278 q 183 323 154 323 q 119 323 95 274 q 71 226 69 167 z"},"b":{"x_min":0,"x_max":358,"ha":358,"o":"m 187 345 q 233 345 263 312 q 293 278 294 218 q 335 230 366 247 q 398 264 400 264 q 406 264 406 254 q 406 244 378 223 q 349 202 292 181 q 280 92 220 44 q 160 -5 100 -5 q 40 -5 20 40 q 0 84 0 180 q 0 276 14 362 q 28 448 50 498 q 72 547 96 574 q 119 600 140 600 q 150 600 158 576 q 167 552 167 517 q 167 440 139 337 q 158 345 187 345 z m 232 165 q 224 164 198 164 q 173 164 142 182 q 112 199 101 230 q 91 205 78 182 q 80 106 90 73 q 100 40 122 40 q 157 40 190 70 q 224 99 232 165 z m 143 499 q 143 541 132 541 q 123 541 110 498 q 98 454 88 380 q 77 305 77 232 q 143 419 143 499 z m 171 309 q 157 309 148 300 q 140 292 140 278 q 140 247 168 226 q 195 206 234 206 q 233 247 218 278 q 203 309 171 309 z"},"%":{"x_min":0,"x_max":521,"ha":521,"o":"m 51 18 q 51 33 68 52 q 84 72 118 112 q 151 151 178 199 q 270 360 328 450 q 289 438 258 435 q 254 387 220 352 q 186 317 134 317 q 82 317 58 346 q 34 375 34 415 q 34 455 62 487 q 90 519 137 519 q 142 519 145 518 q 162 532 188 532 q 214 532 234 512 q 253 493 258 463 q 302 466 353 487 q 367 508 388 534 q 408 561 435 561 q 462 561 462 541 q 462 511 427 496 q 387 478 262 234 q 153 20 116 2 q 104 -4 86 -4 q 51 -4 51 18 z m 397 181 q 378 181 378 195 q 378 222 417 222 q 442 222 462 201 q 481 180 481 134 q 481 88 447 50 q 413 13 350 13 q 307 13 282 42 q 256 72 256 115 q 256 158 284 196 q 312 235 359 235 q 373 235 373 225 q 373 218 358 214 q 342 211 326 182 q 309 154 309 123 q 309 92 328 70 q 348 47 378 47 q 407 47 424 71 q 442 95 442 123 q 442 151 436 164 q 431 178 426 182 q 420 187 418 187 q 417 187 411 184 q 405 181 397 181 z m 142 349 q 179 349 198 374 q 216 400 218 433 q 177 434 153 449 q 129 464 129 485 q 129 495 133 503 q 83 494 83 425 q 83 395 101 372 q 119 349 142 349 z m 176 507 q 167 507 167 496 q 167 486 180 478 q 193 469 215 465 q 205 507 176 507 z"},"m":{"x_min":0,"x_max":542,"ha":542,"o":"m 83 54 l 84 23 q 84 -5 68 -5 q 44 -5 22 2 q 0 8 0 20 q 0 31 6 98 q 11 166 11 200 l 11 259 q 11 307 21 317 q 31 327 56 346 q 82 365 94 365 q 105 365 108 361 q 111 357 111 346 q 111 293 91 246 q 86 189 86 167 q 139 266 160 297 q 197 355 227 355 q 246 355 262 340 q 279 325 279 303 q 279 281 278 262 q 278 242 277 231 q 276 220 276 217 q 280 225 310 262 q 340 299 350 310 q 361 321 373 332 q 396 355 414 355 q 433 355 450 341 q 466 327 466 306 q 466 262 456 176 q 447 91 447 68 q 447 46 453 46 q 470 47 500 88 q 530 130 560 195 q 589 260 596 260 q 602 260 602 252 q 602 224 573 163 q 494 -5 440 -5 q 406 -5 386 11 q 379 18 379 48 q 379 77 384 144 q 390 210 390 243 q 390 276 379 276 q 366 276 322 232 q 279 188 276 170 q 270 136 270 23 q 270 -5 255 -5 q 232 -5 212 2 q 191 8 191 20 q 191 31 197 118 q 203 205 203 240 q 203 276 192 276 q 180 276 136 208 q 92 139 88 112 q 83 85 83 54 z"},"#":{"x_min":0,"x_max":572,"ha":572,"o":"m 289 240 l 200 237 q 189 159 169 70 q 149 -10 116 -10 q 101 -10 86 -5 q 70 0 69 10 q 69 36 100 102 q 130 169 135 189 l 147 236 q 137 235 110 230 q 82 224 65 224 q 33 224 33 242 q 33 249 56 255 q 78 261 99 263 l 155 268 q 166 322 177 397 l 89 386 q 59 386 59 402 q 59 409 82 416 q 105 422 125 424 l 181 430 q 196 539 206 569 q 214 600 227 600 q 235 600 240 595 q 246 590 246 579 q 246 568 242 555 q 238 542 234 534 q 229 526 227 510 q 225 493 219 433 q 290 440 359 444 q 373 534 382 567 q 392 600 404 600 q 417 600 417 588 q 417 575 411 561 q 405 518 398 446 q 476 451 508 451 q 541 451 541 437 q 541 432 535 420 q 529 409 514 397 q 498 385 472 385 q 445 385 391 394 q 383 322 377 285 q 452 290 484 290 q 515 290 515 276 q 515 271 508 261 q 502 251 486 241 q 471 231 440 231 q 409 231 370 235 q 358 157 341 74 q 324 -10 294 -10 q 280 -10 266 -5 q 253 0 252 10 q 252 37 279 105 q 306 173 310 189 l 322 239 q 309 240 289 240 z m 317 401 l 217 398 q 210 313 205 272 l 331 282 q 333 295 338 319 q 344 354 352 399 q 343 401 317 401 z"},",":{"x_min":0,"x_max":152,"ha":152,"o":"m 24 -114 q 16 -114 16 -103 q 16 -92 36 -66 q 56 -40 56 -26 q 56 -11 43 4 q 30 19 30 30 q 30 41 49 58 q 68 76 83 76 q 98 76 110 58 q 122 39 122 14 q 122 -11 86 -62 q 49 -114 24 -114 z"},"n":{"x_min":0,"x_max":371,"ha":371,"o":"m 78 54 l 79 23 q 79 -5 63 -5 q 39 -5 17 2 q -5 8 -5 20 q -5 31 0 98 q 6 166 6 200 l 6 259 q 6 307 16 317 q 26 327 52 346 q 77 365 88 365 q 100 365 103 361 q 106 357 106 346 q 106 293 86 246 q 81 189 81 167 q 85 173 123 235 q 161 297 188 326 q 214 355 235 355 q 256 355 272 341 q 289 327 289 306 q 289 262 280 176 q 270 91 270 68 q 270 46 276 46 q 293 47 323 88 q 353 130 382 195 q 412 260 418 260 q 425 260 425 252 q 425 224 396 163 q 317 -5 263 -5 q 224 -5 204 11 q 197 18 197 48 q 197 77 202 144 q 208 210 208 243 q 208 276 196 276 q 185 276 136 208 q 87 139 84 120 q 78 85 78 54 z"},"h":{"x_min":0,"x_max":371,"ha":371,"o":"m 83 54 l 84 23 q 84 -5 68 -5 q 44 -5 22 2 q 0 8 0 20 q 0 31 6 98 q 11 166 11 200 l 11 258 q 11 514 102 584 q 123 600 145 600 q 155 600 165 578 q 175 556 175 521 q 175 435 146 360 q 117 285 87 245 q 86 220 86 167 q 90 173 128 235 q 166 297 192 326 q 219 355 240 355 q 261 355 278 341 q 294 327 294 306 q 294 262 284 176 q 275 91 275 68 q 275 46 281 46 q 298 47 328 88 q 358 130 388 195 q 417 260 424 260 q 430 260 430 252 q 430 224 401 163 q 322 -5 268 -5 q 229 -5 209 11 q 202 18 202 48 q 202 77 208 144 q 213 210 213 243 q 213 276 202 276 q 190 276 141 208 q 92 139 89 120 q 83 85 83 54 z m 148 499 q 148 541 137 541 q 119 541 102 430 q 93 371 89 293 q 148 416 148 499 z"},"z":{"x_min":0,"x_max":340,"ha":340,"o":"m 169 224 q 48 224 16 262 q 0 281 0 305 q 0 329 14 342 q 29 354 46 354 q 62 354 73 340 q 84 327 84 315 q 84 297 124 290 q 164 282 202 282 q 241 337 257 344 q 263 346 270 346 q 286 346 286 314 q 286 282 272 265 q 258 248 223 233 q 164 179 107 108 q 133 102 186 84 q 239 67 247 67 q 288 67 348 200 q 375 260 382 260 q 388 260 388 245 q 388 230 359 163 q 282 -10 213 -10 q 206 -10 149 15 q 92 40 63 40 q 38 3 15 3 q 0 3 0 30 q 0 58 22 86 q 45 113 71 113 q 141 191 169 224 z"},"B":{"x_min":0,"x_max":506,"ha":506,"o":"m 255 26 q 309 26 350 64 q 392 102 392 152 q 392 201 361 243 q 327 226 294 226 q 217 226 217 274 q 217 288 236 300 q 255 311 290 311 q 326 311 368 290 q 408 333 408 387 q 408 454 350 494 q 291 533 224 533 q 210 533 203 532 q 202 503 198 439 q 192 343 192 146 q 192 70 181 70 q 138 70 126 82 q 114 94 114 151 q 114 165 120 266 q 125 367 125 429 q 125 491 129 520 q 76 502 72 462 q 68 429 58 416 q 47 403 30 403 q 12 403 6 412 q 0 422 0 432 q 0 519 135 552 q 152 620 189 620 q 204 620 204 564 q 230 567 268 567 q 307 567 357 552 q 407 538 444 502 q 481 465 481 420 q 481 336 400 269 q 456 225 456 164 q 456 103 418 63 q 347 -10 228 -10 q 147 -10 112 1 q 105 3 98 12 q 90 20 90 33 q 90 54 131 54 q 144 54 188 40 q 232 26 255 26 z m 340 265 q 310 290 284 290 q 257 290 257 279 q 257 256 306 256 q 324 256 340 265 z"},"K":{"x_min":0,"x_max":653,"ha":653,"o":"m 617 -33 l 657 -29 q 666 -29 666 -37 q 664 -55 634 -75 q 605 -95 566 -95 q 524 -95 478 -1 q 438 78 397 184 q 368 168 337 163 q 293 -40 121 -40 q 76 -40 38 -19 q 0 2 0 46 q 0 73 14 90 q 28 108 52 108 q 75 108 75 97 q 75 92 69 78 q 63 63 63 48 q 63 34 80 18 q 97 1 131 1 q 165 1 190 16 q 215 32 230 62 q 245 92 254 123 q 264 154 268 200 q 275 266 275 352 q 275 438 277 490 q 149 468 149 380 q 149 355 138 341 q 128 327 112 327 q 82 327 82 361 q 82 421 136 462 q 190 504 280 524 q 287 564 316 590 q 344 616 366 616 q 389 616 402 604 q 416 591 416 570 q 416 521 348 502 l 352 316 q 352 258 345 208 q 396 224 445 299 q 494 374 529 490 q 556 580 620 580 q 647 580 647 547 q 647 515 607 488 q 592 478 590 474 q 512 295 447 226 q 510 97 550 32 q 589 -33 617 -33 z m 375 582 q 354 582 349 537 q 385 548 385 566 q 385 582 375 582 z"},"R":{"x_min":0,"x_max":584,"ha":584,"o":"m 551 -43 l 584 -35 q 600 -35 600 -51 q 599 -77 574 -98 q 548 -118 516 -118 q 484 -118 465 -87 q 438 -42 414 74 q 403 130 388 166 q 361 157 331 157 q 301 157 278 170 q 256 182 256 200 q 258 246 330 246 q 365 246 405 215 q 467 262 467 346 q 467 396 448 434 q 429 473 398 495 q 337 538 262 538 q 260 516 255 468 q 245 368 243 313 l 240 155 q 240 -27 168 -27 q 122 -27 122 12 q 122 22 136 46 q 149 70 155 102 q 161 133 168 286 q 175 440 187 528 q 134 513 100 482 q 67 451 67 409 q 67 385 56 370 q 45 356 29 356 q 0 356 0 387 q 0 457 56 502 q 113 548 196 568 q 216 635 252 635 q 266 635 266 603 q 266 596 264 578 q 275 580 306 580 q 337 580 376 571 q 415 562 454 540 q 494 519 518 476 q 542 432 542 374 q 542 316 512 266 q 482 216 434 186 q 468 144 488 83 q 507 22 524 -10 q 541 -43 551 -43 z m 369 197 q 349 220 323 220 q 297 220 297 212 q 297 204 311 198 q 325 192 340 192 q 356 192 369 197 z"},"T":{"x_min":0,"x_max":420,"ha":420,"o":"m 307 326 l 307 496 q 288 500 252 508 q 216 517 197 521 q 140 533 107 533 q 44 533 44 498 q 44 459 70 432 q 97 405 118 405 q 139 405 156 416 q 172 427 185 427 q 202 427 202 410 q 202 392 186 381 q 171 370 138 370 q 85 370 48 416 q 11 462 11 510 q 11 558 33 582 q 55 606 88 606 q 164 606 314 558 q 326 621 359 621 q 374 621 374 539 q 471 509 541 509 q 586 509 620 538 q 630 546 638 546 q 645 546 645 539 q 645 512 605 490 q 565 469 509 469 q 453 469 374 483 q 376 345 376 293 q 376 241 372 204 q 369 167 357 126 q 345 86 326 58 q 306 31 272 13 q 237 -5 192 -5 q 146 -5 110 16 q 73 37 73 81 q 73 108 87 126 q 101 143 124 143 q 148 143 148 132 q 148 127 142 112 q 136 98 136 84 q 136 69 154 52 q 173 35 208 35 q 307 35 307 326 z"},"P":{"x_min":0,"x_max":553,"ha":553,"o":"m 291 579 q 297 580 324 580 q 350 580 388 570 q 425 561 460 540 q 496 518 518 476 q 539 435 539 378 q 539 284 466 226 q 393 168 273 168 q 273 -27 204 -27 q 158 -27 158 12 q 158 24 170 45 q 182 66 187 93 q 192 120 195 180 q 154 193 154 216 q 154 239 175 239 q 186 239 197 236 q 210 503 215 531 q 158 517 120 485 q 83 453 83 409 q 83 384 72 370 q 62 356 46 356 q 16 356 16 390 q 16 457 76 506 q 135 554 224 571 q 243 635 277 635 q 291 635 291 579 z m 464 350 q 464 440 412 488 q 361 535 288 538 q 273 361 273 205 q 287 203 295 203 q 379 203 422 246 q 464 289 464 350 z"},"|":{"x_min":0,"x_max":191,"ha":191,"o":"m 74 -167 q 53 -167 53 -76 q 53 -48 58 26 q 80 345 92 558 q 94 601 115 601 q 132 601 132 570 q 132 432 106 -45 q 100 -167 74 -167 z"},"t":{"x_min":0,"x_max":201,"ha":201,"o":"m 224 163 q 145 -5 90 -5 q 36 -5 26 8 q 17 21 17 94 q 17 167 31 305 q -19 315 -22 346 q -22 362 -1 362 q 20 362 36 354 q 45 426 57 500 q 60 519 76 536 q 92 553 107 553 q 120 553 120 512 q 120 493 106 337 q 133 342 166 357 q 198 372 204 372 q 222 372 222 361 q 223 351 185 334 q 147 316 103 307 q 91 161 91 86 q 91 46 103 46 q 121 47 151 88 q 181 129 210 194 q 240 260 246 260 q 253 260 253 252 q 253 224 224 163 z"},"M":{"x_min":0,"x_max":651,"ha":651,"o":"m 680 252 q 680 224 646 150 q 573 -5 515 -5 q 493 -5 475 0 q 457 6 453 11 q 443 23 443 99 q 443 279 455 391 q 397 334 349 261 q 370 181 370 122 q 370 64 348 32 q 325 0 291 0 q 250 0 250 79 q 250 133 293 222 q 273 292 235 359 q 219 268 186 173 q 153 78 118 32 q 83 -15 35 -15 q 0 -15 0 12 q 0 34 15 43 q 30 52 50 56 q 71 61 77 67 q 116 108 150 207 q 185 306 201 410 q 158 466 158 494 q 158 521 172 542 q 187 563 220 563 q 230 563 237 538 q 244 512 244 484 q 305 395 337 300 q 393 392 465 470 q 496 659 537 659 q 551 659 566 638 q 582 617 582 595 q 582 527 523 457 q 511 372 511 209 q 511 46 529 46 q 547 46 578 88 q 608 129 638 194 q 667 260 674 260 q 680 260 680 252 z m 303 179 q 279 126 279 84 q 279 43 289 43 q 299 43 304 68 q 309 92 309 119 q 309 146 303 179 z"},"g":{"x_min":0,"x_max":372,"ha":372,"o":"m 165 355 q 180 355 201 342 q 222 330 238 312 q 241 322 267 344 q 293 365 308 365 q 322 365 322 322 q 322 279 304 246 q 294 179 293 122 q 391 246 398 253 q 404 260 409 260 q 419 260 419 250 q 419 244 415 237 q 383 190 289 72 q 283 -47 281 -90 q 276 -217 246 -268 q 215 -320 137 -320 q 103 -320 74 -300 q 44 -279 44 -228 q 44 -178 82 -125 q 121 -72 223 38 l 229 153 q 198 71 172 33 q 145 -5 102 -5 q 59 -5 30 32 q 0 69 0 150 q 0 231 46 293 q 91 355 165 355 z m 159 319 q 131 319 100 276 q 68 232 68 176 q 68 119 84 84 q 101 48 126 48 q 151 48 174 89 q 197 130 233 230 q 235 264 235 273 q 227 288 202 304 q 177 319 159 319 z m 220 -9 q 106 -132 106 -206 q 106 -240 118 -262 q 130 -284 151 -284 q 183 -284 196 -249 q 209 -214 215 -107 z"},"j":{"x_min":0,"x_max":168,"ha":168,"o":"m 16 38 q 29 300 30 310 q 32 320 59 342 q 86 365 100 365 q 115 365 115 322 q 115 279 97 246 q 88 170 86 122 q 184 246 190 253 q 197 260 202 260 q 212 260 212 250 q 212 244 208 237 q 176 190 82 72 q 76 -47 74 -90 q 69 -217 38 -268 q 8 -320 -70 -320 q -104 -320 -134 -300 q -163 -279 -163 -236 q -163 -192 -142 -152 q -122 -112 -100 -86 q -77 -60 -38 -19 q 2 22 16 38 z m 13 -9 q -101 -132 -101 -206 q -101 -240 -89 -262 q -77 -284 -56 -284 q -24 -284 -11 -249 q 2 -214 8 -107 z m 47 489 q 47 507 66 520 q 85 533 100 533 q 127 533 127 502 q 127 471 111 448 q 95 426 66 426 q 47 426 47 489 z"},"i":{"x_min":0,"x_max":175,"ha":175,"o":"m 37 489 q 37 507 56 520 q 75 533 90 533 q 117 533 117 502 q 117 471 101 448 q 85 426 56 426 q 37 426 37 489 z m 66 -5 q 27 -5 7 11 q 0 18 0 61 q 0 104 6 204 q 13 305 18 313 q 23 321 49 343 q 75 365 90 365 q 104 365 104 327 q 104 317 98 288 q 93 259 86 246 q 73 213 73 73 q 73 46 79 46 q 96 47 126 88 q 156 130 186 195 q 215 260 222 260 q 228 260 228 252 q 228 224 199 163 q 120 -5 66 -5 z"},"y":{"x_min":0,"x_max":350,"ha":350,"o":"m 0 87 l 6 199 q 6 306 16 316 q 26 326 52 346 q 77 365 88 365 q 100 365 103 361 q 106 357 106 345 q 106 302 87 258 q 72 166 72 107 q 72 48 86 48 q 110 48 142 90 q 173 133 206 216 q 207 238 208 262 q 209 287 210 298 q 211 310 212 315 q 212 320 239 342 q 266 365 280 365 q 295 365 295 327 q 295 317 290 288 q 284 259 277 246 q 269 175 266 122 q 364 246 370 253 q 377 260 382 260 q 392 260 392 250 q 392 244 388 237 q 356 190 262 72 q 256 -47 254 -90 q 249 -217 218 -268 q 188 -320 110 -320 q 76 -320 46 -300 q 17 -279 17 -228 q 17 -178 56 -125 q 94 -72 196 38 l 202 147 q 168 72 135 34 q 102 -5 62 -5 q 22 -5 11 15 q 0 35 0 87 z m 193 -9 q 79 -132 79 -206 q 79 -240 91 -262 q 103 -284 124 -284 q 156 -284 169 -249 q 182 -214 188 -107 z"},"@":{"x_min":0,"x_max":727,"ha":727,"o":"m 406 11 q 399 18 399 48 q 399 77 401 133 q 373 62 348 28 q 322 -5 281 -5 q 240 -5 210 32 q 180 70 180 150 q 180 231 226 293 q 271 355 345 355 q 377 355 417 313 q 426 326 447 346 q 468 365 482 365 q 497 365 497 322 q 497 279 482 246 q 467 213 467 134 q 467 55 473 44 q 479 33 495 33 q 528 33 554 65 q 581 97 594 138 q 606 178 606 213 q 606 328 552 404 q 497 481 398 481 q 298 481 224 428 q 151 376 114 297 q 77 218 77 133 q 77 14 154 -55 q 231 -124 337 -124 q 423 -124 513 -79 q 563 -54 570 -54 q 578 -54 578 -68 q 578 -88 515 -122 q 406 -181 282 -181 q 159 -181 80 -106 q 0 -30 0 95 q 0 281 113 400 q 226 519 412 519 q 494 519 558 476 q 623 432 654 373 q 684 314 684 257 q 684 140 629 68 q 574 -5 470 -5 q 426 -5 406 11 z m 339 315 q 311 315 280 274 q 248 232 248 176 q 248 120 264 84 q 281 48 308 48 q 342 48 407 219 l 411 269 q 402 285 379 300 q 356 315 339 315 z"},".":{"x_min":0,"x_max":178,"ha":178,"o":"m 125 37 q 125 -18 71 -18 q 56 -18 42 -8 q 28 1 28 23 q 28 45 48 58 q 68 70 85 70 q 102 70 114 60 q 125 51 125 37 z"},"p":{"x_min":0,"x_max":360,"ha":360,"o":"m 31 311 q 42 324 66 344 q 90 365 104 365 q 118 365 118 326 q 118 286 97 248 q 93 230 91 196 q 120 275 149 315 q 178 355 220 355 q 261 355 292 318 q 323 280 323 200 q 323 119 278 57 q 232 -5 158 -5 q 120 -5 81 23 q 81 -168 59 -268 q 57 -277 32 -298 q 8 -320 -4 -320 q -15 -320 -20 -304 q -25 -288 -25 -274 q -25 -171 17 -9 q 24 85 26 197 q 29 309 31 311 z m 164 31 q 193 31 224 72 q 255 112 255 172 q 255 231 238 266 q 222 302 194 302 q 146 302 85 103 q 83 75 83 59 q 111 31 164 31 z"},"X":{"x_min":0,"x_max":524,"ha":524,"o":"m 405 -20 q 367 -20 338 20 q 309 59 249 189 q 120 -20 76 -20 q 26 -20 26 9 q 26 25 50 48 q 74 72 127 124 q 180 176 227 238 q 184 324 148 378 q 147 376 96 260 q 86 234 70 234 q 59 234 59 248 q 59 262 70 284 q 102 341 127 410 q 96 460 96 473 q 96 517 107 558 q 118 600 139 600 q 187 600 187 517 q 201 489 282 317 q 304 344 341 418 q 378 493 410 546 q 442 600 467 600 q 492 600 492 579 q 492 553 484 538 q 475 523 456 506 q 437 489 426 474 q 370 393 302 275 q 403 61 425 61 q 459 61 537 234 q 549 261 558 261 q 561 261 564 256 q 568 250 568 242 q 566 200 506 90 q 446 -20 405 -20 z"},"*":{"x_min":0,"x_max":373,"ha":373,"o":"m 132 320 q 98 320 98 350 q 98 364 118 389 q 139 414 145 427 q 105 419 68 419 q 31 419 30 435 q 30 447 52 447 q 117 447 159 463 q 122 504 116 508 q 111 513 101 520 q 91 528 88 530 q 85 533 78 540 q 71 546 69 550 q 62 564 62 574 q 62 597 90 597 q 102 597 110 589 q 118 581 124 573 q 131 565 136 558 q 155 535 176 505 q 189 551 192 597 q 194 643 211 643 q 226 643 226 598 q 226 553 213 491 q 222 497 244 515 q 266 533 286 545 q 305 557 320 557 q 335 557 335 534 q 335 510 311 497 q 266 470 221 452 q 227 446 248 430 q 300 393 300 376 q 300 365 288 365 q 250 365 196 423 q 194 418 188 398 q 183 378 179 368 q 175 359 168 346 q 155 320 132 320 z"},"Y":{"x_min":0,"x_max":519,"ha":519,"o":"m 113 517 q 113 531 106 531 q 90 531 70 508 q 49 484 42 435 q 41 424 34 416 q 26 407 18 407 q 6 407 6 427 q 6 447 26 484 q 46 520 78 550 q 111 580 142 580 q 178 580 178 522 q 177 465 165 355 q 153 245 153 190 q 153 50 205 50 q 243 50 294 121 q 344 192 370 266 q 390 484 401 547 q 403 556 432 578 q 461 600 476 600 q 492 600 492 553 q 492 498 482 458 q 455 355 448 327 q 436 247 431 100 q 475 123 507 123 q 519 123 519 114 q 519 106 507 101 q 466 88 429 64 q 429 -159 398 -240 q 368 -320 268 -320 q 158 -320 158 -227 q 158 -158 212 -86 q 265 -13 355 51 q 358 114 363 186 q 323 107 274 51 q 224 -5 180 -5 q 135 -5 109 40 q 83 84 83 160 q 83 235 98 348 q 113 462 113 517 z m 282 -284 q 313 -284 330 -218 q 346 -151 352 9 q 295 -33 260 -92 q 226 -150 226 -194 q 226 -239 243 -262 q 260 -284 282 -284 z"},"c":{"x_min":0,"x_max":286,"ha":286,"o":"m 179 243 l 187 294 q 187 305 180 314 q 173 323 162 323 q 125 323 98 268 q 71 212 71 161 q 71 110 92 78 q 113 47 144 47 q 174 47 198 61 q 222 75 242 101 q 284 156 314 226 q 322 244 326 252 q 331 260 336 260 q 342 260 342 252 q 342 219 319 173 q 296 127 280 102 q 265 78 241 51 q 191 -5 116 -5 q 59 -5 30 36 q 0 76 0 122 q 0 236 50 296 q 99 355 175 355 q 207 355 226 338 q 244 322 244 301 q 244 262 230 243 q 216 224 196 224 q 179 224 179 243 z"},"!":{"x_min":0,"x_max":253,"ha":253,"o":"m 162 37 q 162 -18 108 -18 q 93 -18 79 -8 q 65 1 66 23 q 66 45 86 58 q 105 70 122 70 q 139 70 150 60 q 162 51 162 37 z m 142 158 q 140 149 132 141 q 125 133 117 133 q 95 133 95 172 q 95 235 98 278 q 101 322 102 360 q 103 443 112 484 q 122 524 140 552 q 157 580 174 580 q 183 580 194 570 q 205 559 205 544 q 205 530 203 516 q 201 503 196 484 q 192 466 186 435 q 181 404 165 301 q 149 198 142 158 z"},"/":{"x_min":0,"x_max":274,"ha":274,"o":"m 12 2 q 39 53 73 113 q 114 194 156 353 q 198 512 213 544 q 228 577 248 577 q 255 577 255 565 q 255 553 249 529 q 158 138 83 -52 q 67 -92 43 -122 q 19 -151 4 -151 q -10 -151 -19 -138 q -28 -124 -28 -108 q -28 -93 -15 -60 q -2 -26 12 2 z"},"[":{"x_min":0,"x_max":372,"ha":372,"o":"m 323 551 l 252 555 q 189 555 183 549 q 168 534 168 494 q 168 399 156 200 q 144 0 144 -40 q 144 -79 149 -86 q 154 -93 202 -93 q 250 -93 280 -85 q 311 -77 325 -77 q 339 -77 344 -82 q 349 -87 349 -92 q 349 -108 326 -116 q 286 -130 199 -130 q 112 -130 87 -119 q 75 -114 75 -84 q 75 20 90 208 q 104 396 104 461 q 104 595 145 595 l 227 590 l 330 595 q 339 595 346 587 q 354 579 354 568 q 354 551 323 551 z"},"6":{"x_min":0,"x_max":447,"ha":447,"o":"m 278 560 q 332 560 364 532 q 396 504 396 457 q 396 438 387 418 q 378 398 356 398 q 326 398 326 426 q 326 433 332 446 q 337 460 337 468 q 336 521 274 521 q 211 521 168 454 q 125 388 116 263 q 165 322 258 322 q 314 322 352 280 q 391 237 391 168 q 391 100 344 45 q 296 -10 214 -10 q 38 -10 38 197 q 38 390 129 492 q 189 560 278 560 z m 174 270 q 128 245 115 216 q 115 157 133 99 q 143 67 166 48 q 189 28 221 28 q 272 28 301 68 q 330 109 330 158 q 330 206 308 246 q 285 286 246 286 q 206 286 174 270 z"},"r":{"x_min":0,"x_max":255,"ha":255,"o":"m 87 261 l 142 267 q 150 267 156 258 q 162 249 162 239 q 162 229 156 171 q 149 113 149 80 q 149 46 155 46 q 172 47 202 88 q 232 130 262 195 q 291 260 298 260 q 304 260 304 252 q 304 224 275 163 q 196 -5 142 -5 q 103 -5 83 11 q 76 18 76 98 q 76 178 93 235 q 35 235 12 272 q 0 291 0 315 q 0 339 10 357 q 20 375 38 375 q 57 375 72 356 q 88 336 88 312 q 88 288 74 264 q 78 261 87 261 z"},"2":{"x_min":0,"x_max":415,"ha":415,"o":"m 108 455 q 108 441 118 418 q 127 396 127 384 q 127 371 118 359 q 110 347 96 347 q 82 347 72 370 q 63 393 63 416 q 63 480 114 520 q 165 560 225 560 q 285 560 328 527 q 372 494 372 440 q 372 385 352 346 q 331 307 304 283 q 277 259 224 212 q 170 165 130 122 q 166 116 230 98 q 293 79 304 79 q 341 79 374 133 q 391 162 398 162 q 407 162 407 150 q 407 122 378 76 q 350 30 327 12 q 304 -5 258 -5 q 244 -5 185 28 q 126 61 90 61 q 62 0 39 0 q 22 0 12 10 q 1 20 1 42 q 1 64 24 93 q 47 122 77 126 q 111 162 154 203 q 197 244 216 263 q 234 282 254 308 q 273 334 280 359 q 286 384 286 422 q 286 460 263 488 q 240 517 202 517 q 164 517 136 503 q 108 489 108 455 z"},"{":{"x_min":0,"x_max":295,"ha":295,"o":"m 179 473 l 185 363 q 185 303 132 268 q 153 256 164 228 q 175 200 175 174 q 175 148 164 100 q 154 53 154 27 q 154 -41 191 -71 l 202 -77 q 220 -87 220 -94 q 220 -102 192 -102 q 149 -102 116 -60 q 84 -17 84 52 q 84 72 95 112 q 106 152 106 171 q 106 190 100 214 q 94 238 88 245 q 71 242 57 242 q 40 242 40 260 q 40 269 47 279 q 54 289 62 289 l 78 287 q 93 287 99 296 q 119 323 119 359 l 108 455 q 108 518 141 568 q 174 618 227 618 q 255 618 255 608 q 255 602 241 596 q 227 589 224 587 q 179 557 179 473 z"},"9":{"x_min":0,"x_max":428,"ha":428,"o":"m 174 27 q 216 27 246 57 q 275 87 288 136 q 312 220 312 314 q 312 526 217 526 q 176 526 144 480 q 113 435 113 379 q 113 308 140 272 q 158 250 190 250 q 221 250 252 264 q 284 278 290 278 q 295 278 295 270 q 295 251 261 232 q 227 213 171 213 q 115 213 82 260 q 50 307 50 366 q 50 443 102 502 q 153 560 224 560 q 263 560 293 545 q 323 530 340 507 q 358 484 370 452 q 389 398 389 328 q 389 -10 156 -10 q 113 -10 78 16 q 44 41 44 72 q 43 104 63 104 q 83 104 97 92 q 111 80 118 66 q 125 51 140 39 q 154 27 174 27 z"}," ":{"x_min":0,"x_max":199,"ha":199,"o":""},"I":{"x_min":0,"x_max":429,"ha":429,"o":"m 371 502 l 375 316 q 375 -20 145 -20 q 100 -20 64 1 q 27 22 27 66 q 27 93 41 110 q 55 128 78 128 q 102 128 102 117 q 102 112 96 98 q 90 83 90 68 q 90 54 107 38 q 124 21 158 21 q 192 21 217 35 q 242 49 257 76 q 272 104 282 133 q 291 162 295 206 q 301 271 301 354 q 301 436 303 490 q 175 468 175 380 q 175 355 164 341 q 154 327 138 327 q 108 327 108 361 q 108 422 162 463 q 215 504 307 524 q 314 565 341 590 q 368 616 390 616 q 412 616 426 604 q 439 591 439 570 q 439 521 371 502 z m 398 582 q 376 582 372 537 q 408 548 408 566 q 408 582 398 582 z"},"H":{"x_min":0,"x_max":550,"ha":550,"o":"m 71 386 q 54 386 43 415 q 32 444 32 476 q 32 524 68 562 q 103 600 158 600 q 195 600 214 564 q 232 529 232 484 q 232 439 230 400 q 227 360 225 338 q 223 317 217 270 q 211 224 209 206 q 289 206 377 287 q 389 431 410 512 q 432 594 454 627 q 476 660 502 660 q 527 660 544 637 q 560 614 560 582 q 560 464 455 327 q 449 248 449 182 q 449 115 468 52 q 488 -10 488 -18 q 488 -25 477 -30 q 466 -34 453 -34 q 418 -34 396 -16 q 385 -7 378 45 q 371 97 371 142 q 371 188 374 241 q 285 165 205 162 q 204 148 203 116 q 202 83 200 68 q 198 52 192 32 q 182 -5 144 -5 q 121 -5 121 34 q 121 74 133 172 q 88 191 88 239 q 88 274 106 298 q 124 323 150 323 q 159 415 159 465 q 159 555 131 555 q 67 555 67 490 q 67 466 79 446 q 91 427 91 416 q 91 404 86 395 q 80 386 71 386 z m 528 565 q 528 580 524 592 q 519 605 512 605 q 484 605 461 388 q 528 490 528 565 z m 147 291 q 133 281 133 264 q 133 247 141 236 z"},"4":{"x_min":0,"x_max":440,"ha":440,"o":"m 239 161 l 44 150 q 27 150 17 159 q 7 168 7 178 q 7 189 34 197 q 42 223 96 352 q 151 481 156 498 q 160 514 165 536 q 170 558 174 569 q 178 580 191 592 q 204 604 219 604 q 234 604 240 591 q 247 578 247 563 q 247 525 221 486 q 195 446 151 362 q 107 278 78 202 q 126 202 178 214 q 231 225 250 228 q 265 402 288 402 q 299 402 310 387 q 322 372 322 357 l 314 234 q 353 234 382 216 q 412 198 412 177 q 412 151 379 151 q 365 151 344 156 q 322 162 307 162 q 305 120 305 32 q 305 14 290 2 q 274 -10 246 -10 q 226 -10 226 23 q 226 76 239 161 z"},"~":{"x_min":0,"x_max":455,"ha":455,"o":"m 405 282 q 405 239 371 204 q 337 169 298 169 q 259 169 213 205 q 167 241 146 241 q 125 241 97 210 q 69 180 57 180 q 47 180 47 192 q 47 226 86 261 q 126 296 159 296 q 192 296 244 269 q 295 242 316 242 q 337 242 354 254 q 370 266 380 278 q 389 289 397 289 q 405 289 405 282 z"},"D":{"x_min":0,"x_max":654,"ha":654,"o":"m 78 359 l 84 295 q 84 285 74 279 q 63 273 56 273 q 42 273 32 296 q 21 318 21 337 q 21 411 72 462 q 124 514 203 540 q 203 574 218 604 q 232 635 263 635 q 276 635 276 598 l 276 556 q 308 560 323 560 q 456 560 534 486 q 611 411 611 298 q 611 220 583 160 q 555 100 507 65 q 411 -5 277 -5 l 256 -5 q 253 -34 248 -34 q 201 -34 185 -21 q 178 -14 177 3 q 88 28 88 58 q 88 68 95 74 q 102 79 110 79 q 119 79 177 55 q 186 317 200 505 q 145 486 112 448 q 78 410 78 359 z m 296 521 q 282 521 275 520 q 271 345 265 226 q 260 71 258 31 q 278 28 300 28 q 395 28 465 98 q 535 169 535 272 q 535 375 468 448 q 401 521 296 521 z"},"^":{"x_min":0,"x_max":536,"ha":536,"o":"m 424 441 q 433 436 433 430 q 433 424 418 414 q 403 403 391 403 q 358 403 312 440 q 265 476 237 554 q 211 487 164 441 q 118 395 96 395 q 63 395 60 412 q 60 419 76 428 q 91 436 109 451 q 127 466 148 488 q 169 511 176 523 q 183 535 196 560 q 208 585 216 600 q 225 614 240 625 q 254 636 265 636 q 281 636 290 605 q 298 574 304 559 q 318 520 373 472 q 385 461 424 441 z"},"0":{"x_min":0,"x_max":467,"ha":467,"o":"m 251 504 l 199 499 q 191 499 191 509 q 191 526 218 538 q 245 550 281 550 q 344 550 388 490 q 432 430 432 316 q 432 205 377 105 q 350 56 302 26 q 254 -5 193 -5 q 108 -5 68 54 q 29 112 29 202 q 29 371 110 477 q 144 522 168 522 q 175 522 175 515 q 175 509 166 497 q 124 437 115 381 q 106 325 106 239 q 106 153 137 98 q 168 44 212 44 q 256 44 284 66 q 313 89 327 126 q 354 199 354 282 q 354 365 328 434 q 302 504 251 504 z"},"F":{"x_min":0,"x_max":409,"ha":409,"o":"m 69 401 l 79 354 q 79 337 67 326 q 55 315 39 315 q 23 315 16 330 q 8 345 8 363 q 8 417 54 460 q 101 504 160 504 l 166 504 q 186 580 226 580 q 238 580 238 548 q 238 542 235 500 q 250 498 270 495 q 317 488 348 488 q 380 488 412 498 q 445 509 456 509 q 484 509 484 480 q 484 452 454 438 q 424 423 367 423 q 310 423 228 449 q 216 380 214 345 q 212 310 210 241 q 252 243 326 243 q 339 243 348 233 q 358 223 358 212 q 358 201 351 194 q 344 187 336 187 l 209 194 q 205 96 202 61 q 200 26 183 -4 q 166 -34 143 -34 q 130 -34 114 -20 q 99 -7 99 5 q 99 17 102 24 q 106 30 110 36 q 115 43 117 47 q 129 73 139 190 l 100 185 q 92 185 87 190 q 82 196 82 204 q 82 211 85 217 q 88 223 97 226 q 106 230 110 231 q 126 235 142 235 q 144 259 148 339 q 151 419 158 464 q 152 465 140 465 q 69 465 69 401 z"},"`":{"x_min":0,"x_max":344,"ha":344,"o":"m 230 453 l 240 448 q 253 442 253 431 q 253 416 236 416 q 218 416 190 426 q 162 435 141 449 q 91 483 91 521 q 91 532 107 548 q 123 563 130 563 q 138 563 145 552 q 152 540 160 522 q 167 504 171 498 q 175 492 178 488 q 182 483 185 480 q 188 477 193 474 q 198 470 201 468 q 204 466 210 462 q 217 459 220 458 q 222 457 230 453 z"},"k":{"x_min":0,"x_max":343,"ha":343,"o":"m 322 -35 l 349 -32 q 357 -32 357 -40 q 357 -54 338 -61 q 319 -68 295 -68 q 250 -68 220 -32 q 189 4 135 101 q 122 122 122 133 q 122 148 164 168 q 232 203 232 256 q 232 271 222 282 q 211 292 194 292 q 170 292 137 236 q 104 179 92 130 q 81 80 81 23 q 81 -5 65 -5 q 42 -5 21 2 q 0 8 0 18 q 0 29 8 114 q 16 198 17 235 q 21 439 41 547 q 44 556 68 578 q 93 600 108 600 q 123 600 122 562 q 122 525 106 402 q 90 279 86 177 q 104 241 144 298 q 183 355 223 355 q 291 355 291 289 q 291 245 265 210 q 239 174 195 152 q 186 148 186 143 q 186 138 189 133 q 252 22 296 -23 q 308 -35 322 -35 z"},"u":{"x_min":0,"x_max":365,"ha":365,"o":"m 0 87 l 6 199 q 6 306 16 316 q 26 326 52 346 q 77 365 88 365 q 100 365 103 361 q 106 357 106 345 q 106 302 87 258 q 72 166 72 107 q 72 48 91 48 q 114 48 145 88 q 176 128 207 207 q 216 307 222 315 q 227 323 249 344 q 271 365 286 365 q 300 365 300 327 q 300 317 294 288 q 289 259 282 246 q 271 218 271 73 q 271 46 277 46 q 294 47 324 88 q 354 130 384 195 q 413 260 420 260 q 426 260 426 252 q 426 224 397 163 q 318 -5 264 -5 q 225 -5 205 11 q 198 18 198 54 q 198 90 201 134 q 169 66 137 30 q 105 -5 66 -5 q 26 -5 13 16 q 0 37 0 87 z"},"]":{"x_min":0,"x_max":336,"ha":336,"o":"m 29 -86 l 108 -96 q 157 -96 170 -82 q 184 -69 184 -29 q 184 66 197 266 q 210 465 210 506 q 210 548 204 556 q 198 565 160 565 q 122 565 99 555 q 76 545 63 545 q 37 545 37 563 q 37 577 62 586 q 88 595 160 595 q 233 595 258 584 q 270 579 270 549 q 270 446 264 258 q 257 70 257 -18 q 257 -106 224 -117 q 215 -120 182 -124 q 149 -129 110 -129 q 72 -129 22 -123 q 5 -121 5 -101 q 5 -86 29 -86 z"},"U":{"x_min":0,"x_max":509,"ha":509,"o":"m 415 46 q 432 46 462 88 q 492 129 522 194 q 551 260 558 260 q 564 260 564 252 q 564 224 535 163 q 456 -5 403 -5 q 357 -5 338 10 q 330 18 330 49 q 330 80 335 145 q 297 80 254 38 q 212 -5 170 -5 q 129 -5 103 40 q 77 84 77 160 q 77 235 92 348 q 107 462 107 517 q 107 531 100 531 q 84 531 64 508 q 43 484 36 435 q 35 424 28 416 q 20 407 12 407 q 0 407 0 427 q 0 447 20 484 q 40 520 72 550 q 105 580 136 580 q 172 580 172 522 q 171 465 159 355 q 147 245 147 190 q 147 50 199 50 q 229 50 269 98 q 309 146 340 210 q 360 466 369 527 q 371 536 400 558 q 429 580 444 580 q 460 580 460 522 q 460 478 453 446 q 446 414 436 371 q 425 328 420 307 q 410 173 410 73 q 410 46 415 46 z"},"o":{"x_min":0,"x_max":364,"ha":364,"o":"m 313 217 q 353 230 368 240 q 384 249 392 254 l 404 261 q 409 264 412 264 q 420 264 420 255 q 420 246 389 224 q 358 201 312 183 q 305 99 259 47 q 213 -5 128 -5 q 66 -5 33 44 q 0 94 0 160 q 0 227 40 286 q 79 345 141 345 q 169 365 208 365 q 246 365 279 324 q 312 283 313 217 z m 248 166 l 212 164 q 166 164 134 192 q 102 219 102 252 q 102 285 113 309 q 70 275 70 175 q 70 127 90 84 q 110 40 153 40 q 196 40 220 76 q 244 113 248 166 z m 186 332 q 170 332 161 318 q 152 303 152 286 q 152 249 178 226 q 203 203 237 203 l 249 203 q 247 252 232 292 q 218 332 186 332 z"},"N":{"x_min":0,"x_max":497,"ha":497,"o":"m 35 -15 q 0 -15 0 12 q 0 34 15 43 q 30 52 50 56 q 71 61 77 67 q 114 106 146 206 q 177 307 191 411 q 148 456 148 484 q 148 512 164 548 q 180 585 202 585 q 215 585 225 553 q 235 521 235 473 q 287 407 316 359 q 347 461 401 530 q 455 600 525 600 q 550 600 565 582 q 580 564 580 542 q 580 520 572 502 q 563 485 549 485 q 535 485 535 499 q 535 513 526 520 q 518 528 505 528 q 464 528 428 485 q 377 424 343 311 q 409 169 409 81 q 409 45 393 18 q 377 -10 346 -10 q 280 -10 280 102 q 280 181 292 252 q 262 316 224 369 q 208 267 180 171 q 151 75 117 30 q 83 -15 35 -15 z m 316 186 q 311 150 311 112 q 311 74 316 53 q 321 32 327 32 q 339 32 339 73 q 339 114 316 186 z"},"+":{"x_min":0,"x_max":402,"ha":402,"o":"m 166 134 q 180 175 185 234 q 173 235 144 235 q 115 235 96 232 q 76 229 74 229 q 50 229 50 247 q 50 260 61 271 q 72 282 79 282 q 86 282 94 281 q 126 277 190 277 q 199 358 199 380 q 199 402 209 412 q 219 423 225 423 q 234 423 234 340 q 234 317 232 277 q 305 277 325 283 l 352 292 q 363 292 363 276 q 363 261 352 245 q 342 229 327 229 q 274 229 230 231 q 218 102 209 87 q 200 72 187 72 q 174 72 166 80 q 158 89 158 100 q 158 110 166 134 z"},"G":{"x_min":0,"x_max":551,"ha":551,"o":"m 487 214 q 518 223 552 244 q 586 266 595 266 q 604 266 604 254 q 604 243 590 233 q 539 197 484 178 q 463 81 390 33 q 317 -15 223 -15 q 163 -15 118 6 q 72 27 48 60 q 0 125 0 197 q 0 290 28 366 q 57 441 103 486 q 149 532 202 556 q 256 580 311 580 q 366 580 412 544 q 458 509 458 463 q 458 448 446 438 q 435 428 419 428 q 396 428 387 460 q 365 537 282 537 q 212 537 146 450 q 81 363 81 244 q 81 160 132 98 q 182 36 258 36 q 319 36 362 71 q 405 106 417 161 q 392 156 356 156 q 320 156 294 173 q 267 190 267 220 q 267 249 298 270 q 328 291 375 291 q 422 291 454 272 q 487 253 487 214 z m 372 257 q 327 257 327 237 q 327 222 345 212 q 363 202 382 202 q 402 202 422 204 q 421 228 406 242 q 391 257 372 257 z"},"q":{"x_min":0,"x_max":378,"ha":378,"o":"m 169 -261 q 169 -188 202 -98 l 214 114 q 189 54 164 24 q 140 -5 100 -5 q 59 -5 30 32 q 0 69 0 150 q 0 231 46 293 q 91 355 165 355 q 197 355 236 314 q 283 365 305 365 q 320 365 320 327 q 320 318 313 290 q 306 261 299 248 q 293 228 289 146 q 285 63 284 48 q 297 69 340 148 q 404 264 418 264 q 426 264 426 253 q 426 242 415 229 q 361 164 281 -18 q 281 -186 254 -267 q 249 -281 226 -300 q 204 -320 189 -320 q 179 -320 174 -302 q 169 -283 169 -261 z m 159 319 q 131 319 100 276 q 68 232 68 176 q 68 119 84 84 q 101 48 125 48 q 149 48 170 82 q 191 116 221 196 l 229 282 q 217 296 196 308 q 174 319 159 319 z"},"d":{"x_min":0,"x_max":394,"ha":394,"o":"m 285 -5 q 251 -5 232 10 q 224 18 224 52 q 224 86 227 141 q 200 69 172 32 q 144 -5 102 -5 q 59 -5 30 32 q 0 69 0 150 q 0 231 46 293 q 91 355 165 355 q 201 355 240 327 q 256 522 269 547 q 275 558 298 579 q 320 600 335 600 q 350 600 350 553 q 350 498 340 458 q 313 355 306 327 q 292 219 292 73 q 292 46 298 46 q 316 47 346 88 q 376 129 406 194 q 435 260 442 260 q 448 260 448 252 q 448 224 419 163 q 340 -5 285 -5 z m 159 319 q 132 319 105 276 q 78 233 78 176 q 78 120 92 84 q 107 48 129 48 q 174 48 232 228 q 237 283 237 293 q 208 319 159 319 z"},"1":{"x_min":0,"x_max":313,"ha":313,"o":"m 169 503 q 203 560 237 560 q 271 560 271 426 q 271 387 264 323 q 258 259 256 231 q 256 156 250 100 q 245 45 243 35 q 241 25 235 12 q 225 -10 185 -10 q 163 -10 163 38 q 163 86 182 212 q 200 339 200 406 q 200 473 192 473 q 185 473 152 408 q 119 343 104 307 q 88 271 81 242 q 74 212 67 198 q 60 184 48 184 q 29 184 29 204 q 29 225 74 323 q 120 421 169 503 z"},"5":{"x_min":0,"x_max":391,"ha":391,"o":"m 119 348 q 154 359 213 359 q 272 359 312 312 q 352 265 352 208 q 352 150 330 105 q 308 60 274 36 q 205 -10 147 -10 q 89 -10 46 16 q 3 42 3 71 q 3 85 12 98 q 21 110 35 110 q 49 110 62 97 q 76 84 84 68 q 92 52 111 39 q 130 26 157 26 q 202 26 239 68 q 276 109 276 174 q 276 239 240 278 q 203 318 151 318 q 131 318 112 312 q 94 306 79 306 q 64 306 64 319 q 64 332 77 337 q 92 408 92 457 q 73 461 60 473 q 46 485 46 502 q 46 518 60 532 q 73 547 86 547 q 99 547 110 538 q 121 528 125 513 q 165 513 204 526 q 242 539 265 554 q 288 569 308 582 q 327 595 334 595 q 353 595 353 552 q 353 528 332 507 q 310 486 260 470 q 209 455 131 455 q 131 421 119 348 z"}}}
